<svg width="150" height="150" xmlns="http://www.w3.org/2000/svg">

 <g>
  <title>background</title>
  <rect fill="none" id="canvas_background" height="152" width="152" y="-1" x="-1"/>
 </g>
 <g>
  <title>Layer 1</title>
  <circle stroke="null" id="svg_2" fill="#00adee" r="74.611017" cy="74.93687" cx="74.898413"/>
  <path stroke="null" id="svg_3" fill="#ffffff" d="m88.086742,105.734358l1.064321,2.399671c0,0 0,0.703231 -0.445316,0.703231c-0.443414,0 -25.066054,0 -25.511369,0c-0.443414,0 -0.553713,-0.703231 -0.553713,-0.703231l1.062736,-2.399671l24.383342,0zm-0.051346,-5.094999l-24.395703,0l0,4.507693l24.395703,0l0,-4.507693zm-48.505833,-11.542005l0,-42.114671l70.760216,0l0,4.799341l4.64111,0l0,-8.27741c0,-1.288533 -0.999029,-2.341875 -2.221825,-2.341875l-75.418442,0c-1.222479,0 -2.221508,1.053009 -2.221508,2.341875l0,46.829156l0,1.102118l0,5.473841c0,1.442542 0.999029,2.629849 2.221508,2.629849l59.620663,0l0,-10.441891l-57.381723,0l0,-0.000334z"/>
  <path stroke="null" id="svg_4" fill="#ffffff" d="m121.347437,53.17814l-17.739355,0c-2.884554,0 -5.242104,2.431701 -5.242104,5.399585l0,41.142162c0,2.971403 2.35755,5.405023 5.242104,5.405023l17.739355,0c2.882692,0 5.240242,-2.4333 5.240242,-5.405023l0,-41.142162c0,-2.967884 -2.35755,-5.399585 -5.240242,-5.399585zm-12.095325,1.577518c0,-0.180434 0.289883,-0.331756 0.643081,-0.331756l5.164512,0c0.353819,0 0.643081,0.151002 0.643081,0.331756l0,0.168277c0,0.180434 -0.289573,0.331756 -0.643081,0.331756l-5.164512,0c-0.353508,0 -0.643081,-0.151002 -0.643081,-0.331756l0,-0.168277zm3.830864,1.956302c0,0.343592 -0.272813,0.623201 -0.606147,0.623201c-0.333335,0 -0.606147,-0.279609 -0.606147,-0.623201c0,-0.347112 0.272813,-0.62672 0.606147,-0.62672c0.333335,0 0.606147,0.279609 0.606147,0.62672zm2.619811,45.66709c0,0.366307 -0.289573,0.66639 -0.643081,0.66639l-5.164512,0c-0.353508,0 -0.643081,-0.300084 -0.643081,-0.66639l0,-0.331436c0,-0.364707 0.289883,-0.661272 0.643081,-0.661272l5.164512,0c0.353819,0 0.643081,0.296884 0.643081,0.661272l0,0.331436zm8.710769,-2.658843l-23.499772,0l0,-41.142482l23.499772,0l0,41.142482z"/>
 </g>
</svg>