<svg width="150" height="150" xmlns="http://www.w3.org/2000/svg">

 <g>
  <title>background</title>
  <rect fill="none" id="canvas_background" height="152" width="152" y="-1" x="-1"/>
 </g>
 <g>
  <g stroke="null" id="svg_23">
   <title stroke="null">Layer 1</title>
   <circle stroke="null" fill="#00adee" id="svg_9" r="74.685907" cy="74.959774" cx="75.036379" class="st1"/>
   <path stroke="null" fill="#ff5656" id="svg_12" d="m66.621072,71.392208c-1.246712,-1.297297 -2.805102,-2.594593 -4.363493,-3.567566c-13.713834,-9.729725 -32.102838,-5.837835 -41.453179,8.432428c-0.935034,1.621621 -1.870068,3.243242 -2.493424,5.189187c9.038663,-5.837835 20.882429,-6.162159 30.23277,0.324324c2.805102,1.945945 4.986849,4.216214 6.856917,6.810807l11.220409,-17.189181z" class="st0"/>
   <path stroke="null" fill="#ff5656" id="svg_13" d="m78.464838,83.716526c1.246712,1.297297 2.493424,2.918917 3.428458,4.540538c9.038663,14.270263 5.610205,33.405389 -8.103629,42.810789c-1.55839,0.972972 -3.428458,1.945945 -4.986849,2.918917c5.610205,-9.405401 5.921883,-21.729719 -0.311678,-31.459444c-1.870068,-2.918917 -4.051815,-5.189187 -6.545239,-7.135132l16.518936,-11.67567z" class="st0"/>
   <path stroke="null" fill="#f2f2f2" id="svg_16" d="m113.996134,57.770593c-3.11678,9.081077 -7.791951,18.810801 -15.583902,26.918905c-12.7788,13.297291 -26.492633,22.054043 -37.401365,24.324312l-18.389004,-19.135126c2.493424,-11.351346 10.908731,-25.945933 23.375853,-38.918899c7.791951,-8.108104 17.142292,-12.972966 25.869277,-16.216208l22.129141,23.027015z" class="st6"/>
   <path stroke="null" fill="#ff5656" id="svg_18" d="m113.996134,57.770593c4.986849,-15.243236 5.298527,-28.86485 5.298527,-28.86485s-12.7788,0.324324 -27.739346,5.513511l22.440819,23.35134z" class="st0"/>
   <ellipse stroke="null" fill="#76c2af" id="svg_19" transform="matrix(2.203875427393656,-2.2932961438301613,2.203875427393656,2.2932961438301613,-19.83720388089065,145.0651297664734) " ry="3.6" rx="3.6" cy="6.282861" cx="42.200962" class="st1"/>
   <ellipse stroke="null" fill="#ffffff" id="svg_20" transform="matrix(2.203875427393656,-2.2932961438301613,2.203875427393656,2.2932961438301613,-19.83720388089065,145.0651297664734) " ry="2.5" rx="2.5" cy="6.282861" cx="42.200962" class="st4"/>
   <path stroke="null" fill="#ff5656" id="svg_22" d="m56.959053,100.257058c-9.038663,9.081077 -19.324039,13.621615 -19.324039,13.621615s4.363493,-10.702697 13.090478,-20.108098s19.324039,-13.621615 19.324039,-13.621615s-4.363493,10.702697 -13.090478,20.108098z" class="st0"/>
  </g>
 </g>
</svg>