<svg width="150" height="150" xmlns="http://www.w3.org/2000/svg">

 <title/>
 <g>
  <title>background</title>
  <rect fill="none" id="canvas_background" height="402" width="582" y="-1" x="-1"/>
 </g>
 <g>
  <title>Layer 1</title>
  <circle fill="#00adee" id="svg_1" r="65" cy="75" cx="75" class="cls-1"/>
  <path fill="#ffffff" id="svg_2" d="m98.25,76a23.19,23.19 0 1 0 -36.15,19.2a2.63,2.63 0 0 0 -0.9,1.13a2.73,2.73 0 0 0 2,3.5a40.82,40.82 0 0 0 24.15,0a2.73,2.73 0 0 0 2,-3.5a2.67,2.67 0 0 0 -1.11,-1.27a23.15,23.15 0 0 0 10.01,-19.06z" class="cls-2"/>
  <path fill="#ffffff" id="svg_3" d="m87.13,102.71a2.3,2.3 0 0 1 -1.68,3a34.49,34.49 0 0 1 -20.39,0a2.3,2.3 0 0 1 -1.68,-3l0,0a2.45,2.45 0 0 1 3,-1.32a30,30 0 0 0 17.75,0a2.45,2.45 0 0 1 3,1.32l0,0z" class="cls-2"/>
  <path fill="#f9c774" id="svg_4" d="m75,46.15a1.74,1.74 0 0 1 -1.74,-1.74l0,-11.13a1.74,1.74 0 0 1 3.49,0l0,11.12a1.74,1.74 0 0 1 -1.75,1.75z" class="cls-3"/>
  <path fill="#f9c774" id="svg_5" d="m116.06,75l-11.66,0a1.74,1.74 0 1 1 0,-3.49l11.67,0a1.74,1.74 0 0 1 -0.01,3.49z" class="cls-3"/>
  <path fill="#f9c774" id="svg_6" d="m45.29,75l-11.12,0a1.74,1.74 0 0 1 0,-3.49l11.12,0a1.74,1.74 0 1 1 0,3.49z" class="cls-3"/>
  <path fill="#f9c774" id="svg_7" d="m53.53,55.71a1.73,1.73 0 0 1 -1.23,-0.51l-7.87,-7.87a1.74,1.74 0 1 1 2.46,-2.46l7.87,7.87a1.74,1.74 0 0 1 -1.23,2.97z" class="cls-3"/>
  <path fill="#f9c774" id="svg_8" d="m96.4,55.9a1.74,1.74 0 0 1 -1.23,-3l8.25,-8.25a1.74,1.74 0 1 1 2.46,2.46l-8.25,8.25a1.74,1.74 0 0 1 -1.23,0.54z" class="cls-3"/>
  <path fill="#ffffff" id="svg_9" d="m85.36,108.44a2.09,2.09 0 0 0 -2.55,-1.12a25.53,25.53 0 0 1 -15.1,0a2.09,2.09 0 0 0 -2.56,1.12a2,2 0 0 0 1.43,2.56a29.09,29.09 0 0 0 4,0.93a1.5,1.5 0 0 0 0,0.26c0,1.49 2.1,2.7 4.7,2.7s4.7,-1.21 4.7,-2.7a1.49,1.49 0 0 0 0,-0.26a29.12,29.12 0 0 0 4,-0.93a2,2 0 0 0 1.38,-2.56z" class="cls-2"/>
 </g>
</svg>