<svg width="150" height="150" xmlns="http://www.w3.org/2000/svg">

 <g>
  <title>background</title>
  <rect fill="none" id="canvas_background" height="152" width="152" y="-1" x="-1"/>
 </g>
 <g>
  <g stroke="null" id="svg_19">
   <title stroke="null">Layer 1</title>
   <circle stroke="null" id="svg_2" r="74.553728" fill="#00adee" cy="74.870078" cx="75.003173"/>
   <path stroke="null" opacity="0.2" id="svg_5" fill="#231F20" d="m128.588669,72.512807c0,-26.038417 -20.861067,-47.145422 -46.596084,-47.145422l0,47.145422l46.596084,0z"/>
   <path stroke="null" id="svg_7" fill="#ff5656" d="m128.588669,67.798264c0,-26.038417 -20.861067,-47.145422 -46.596084,-47.145422l0,47.145422l46.596084,0z"/>
   <path stroke="null" opacity="0.2" id="svg_10" fill="#231F20" d="m72.673369,30.081927c-28.307121,0 -51.255692,23.21912 -51.255692,51.859964s22.948571,51.859964 51.255692,51.859964c13.261245,0 25.34827,-5.09642 34.448485,-13.460018l-34.448485,-38.399946l0,-51.859964z"/>
   <path stroke="null" id="svg_13" fill="#56ffff" d="m72.673369,25.367385c-28.307121,0 -51.255692,23.21912 -51.255692,51.859964s22.948571,51.859964 51.255692,51.859964c13.261245,0 25.34827,-5.09642 34.448485,-13.460018l-34.448485,-38.399946l0,-51.859964z"/>
   <path stroke="null" opacity="0.2" id="svg_16" fill="#231F20" d="m123.929061,77.227349l-51.255692,0l0,4.714542l34.448485,38.399946c10.323362,-9.485659 16.807207,-27.891232 16.807207,-43.114488z"/>
   <path stroke="null" id="svg_18" fill="#aaff56" d="m123.929061,77.227349l-51.255692,0l34.448485,38.399946c10.323362,-9.485659 16.807207,-23.176689 16.807207,-38.399946z"/>
  </g>
 </g>
</svg>