<svg width="64" height="64" xmlns="http://www.w3.org/2000/svg">

 <g>
  <title>background</title>
  <rect fill="none" id="canvas_background" height="402" width="582" y="-1" x="-1"/>
 </g>
 <g>
  <title>Layer 1</title>
  <circle id="svg_2" r="32" fill="#e5e5e5" cy="32" cx="32"/>
  <path opacity="0.2" id="svg_5" fill="#231F20" d="m55,31c0,-11.046 -8.954,-20 -20,-20l0,20l20,0z"/>
  <path id="svg_7" fill="#ff5656" d="m55,29c0,-11.046 -8.954,-20 -20,-20l0,20l20,0z"/>
  <path opacity="0.2" id="svg_10" fill="#231F20" d="m31,13c-12.15,0 -22,9.85 -22,22s9.85,22 22,22c5.692,0 10.88,-2.162 14.786,-5.71l-14.786,-16.29l0,-22z"/>
  <path id="svg_13" fill="#00adee" d="m31,11c-12.15,0 -22,9.85 -22,22s9.85,22 22,22c5.692,0 10.88,-2.162 14.786,-5.71l-14.786,-16.29l0,-22z"/>
  <path opacity="0.2" id="svg_16" fill="#231F20" d="m53,33l-22,0l0,2l14.786,16.29c4.431,-4.024 7.214,-11.832 7.214,-18.29z"/>
  <path id="svg_18" fill="#76c2af" d="m53,33l-22,0l14.786,16.29c4.431,-4.024 7.214,-9.832 7.214,-16.29z"/>
 </g>
</svg>